{
  "asset": {
    "version": "2.0",
    "generator": "THREE.GLTFExporter r179"
  },
  "scenes": [
    {
      "nodes": [
        0
      ]
    }
  ],
  "scene": 0,
  "nodes": [
    {
      "matrix": [
        -0.09997465279305143,
        -2.7571689737555116e-19,
        -0.002251399322380265,
        0,
        0,
        -0.1,
        1.224646799147353e-17,
        0,
        -0.002251399322380265,
        1.2243363853887842e-17,
        0.09997465279305144,
        0,
        0,
        0,
        0,
        1
      ],
      "name": "LogoMesh",
      "mesh": 0
    }
  ],
  "bufferViews": [
    {
      "buffer": 0,
      "byteOffset": 0,
      "byteLength": 165012,
      "target": 34962,
      "byteStride": 12
    },
    {
      "buffer": 0,
      "byteOffset": 165012,
      "byteLength": 110008,
      "target": 34962,
      "byteStride": 8
    },
    {
      "buffer": 0,
      "byteOffset": 275020,
      "byteLength": 165012,
      "target": 34962,
      "byteStride": 12
    },
    {
      "buffer": 0,
      "byteOffset": 440032,
      "byteLength": 220016,
      "target": 34962,
      "byteStride": 16
    },
    {
      "buffer": 0,
      "byteOffset": 660048,
      "byteLength": 127488,
      "target": 34963
    }
  ],
  "buffers": [
    {
      "byteLength": 787536,
      "uri": "data:application/octet-stream;base64,"
    }
  ],
  "accessors": [
    {
      "bufferView": 0,
      "componentType": 5126,
      "count": 13751,
      "max": [
        101,
        13.552903175354004,
        11
      ],
      "min": [
        -101,
        -13.552903175354004,
        -11
      ],
      "type": "VEC3"
    },
    {
      "bufferView": 1,
      "componentType": 5126,
      "count": 13751,
      "max": [
        2.0199999809265137,
        0.25105297565460205
      ],
      "min": [
        -2.0199999809265137,
        -0.4000000059604645
      ],
      "type": "VEC2"
    },
    {
      "bufferView": 2,
      "componentType": 5126,
      "count": 13751,
      "max": [
        1,
        1,
        1
      ],
      "min": [
        -1,
        -1,
        -1
      ],
      "type": "VEC3"
    },
    {
      "bufferView": 3,
      "componentType": 5126,
      "count": 13751,
      "max": [
        1,
        1,
        0.4800902009010315,
        1
      ],
      "min": [
        -0.9630947113037109,
        -0.9999909400939941,
        -0.8667330741882324,
        -1
      ],
      "type": "VEC4"
    },
    {
      "bufferView": 4,
      "componentType": 5123,
      "count": 63744,
      "max": [
        13750
      ],
      "min": [
        0
      ],
      "type": "SCALAR"
    }
  ],
  "materials": [
    {
      "pbrMetallicRoughness": {
        "baseColorFactor": [
          0.7835377915215659,
          0.7835377915215659,
          0.7835377915215659,
          1
        ],
        "metallicFactor": 1,
        "roughnessFactor": 0.12
      },
      "emissiveFactor": [
        1,
        1,
        1
      ],
      "doubleSided": true,
      "extensions": {
        "KHR_materials_clearcoat": {
          "clearcoatFactor": 0.95,
          "clearcoatRoughnessFactor": 0.1
        },
        "KHR_materials_emissive_strength": {
          "emissiveStrength": 0.02
        }
      }
    }
  ],
  "meshes": [
    {
      "primitives": [
        {
          "mode": 4,
          "attributes": {
            "POSITION": 0,
            "TEXCOORD_0": 1,
            "NORMAL": 2,
            "TANGENT": 3
          },
          "indices": 4,
          "material": 0
        }
      ]
    }
  ],
  "extensionsUsed": [
    "KHR_materials_clearcoat",
    "KHR_materials_emissive_strength"
  ]
}